<?xml version="1.0" standalone="no"?><!DOCTYPE svg PUBLIC "-//W3C//DTD SVG 1.1//EN" "http://www.w3.org/Graphics/SVG/1.1/DTD/svg11.dtd"><svg t="1730305735098" class="icon" viewBox="0 0 1024 1024" version="1.1" xmlns="http://www.w3.org/2000/svg" p-id="1550" xmlns:xlink="http://www.w3.org/1999/xlink" width="200" height="200"><path d="M511.509333 84.885333A32 32 0 0 0 480 117.333333v349.418667l-94.72-94.72a32 32 0 1 0-45.226667 45.269333l149.333334 149.333334a32 32 0 0 0 45.226666 0l149.333334-149.333334a32 32 0 1 0-45.226667-45.269333l-94.72 94.72V117.333333a32 32 0 0 0-32.490667-32.448zM288 85.333333C223.573333 85.333333 170.666667 138.24 170.666667 202.666667v618.666666c0 64.426667 52.906667 117.333333 117.333333 117.333334h448c64.426667 0 117.333333-52.906667 117.333333-117.333334v-618.666666C853.333333 138.24 800.426667 85.333333 736 85.333333H597.333333v64h138.666667C765.824 149.333333 789.333333 172.842667 789.333333 202.666667v471.744A115.882667 115.882667 0 0 0 736 661.333333h-448c-19.2 0-37.290667 4.8-53.333333 13.077334V202.666667C234.666667 172.842667 258.176 149.333333 288 149.333333H426.666667V85.333333h-138.666667z m0 640h448c29.824 0 53.333333 23.509333 53.333333 53.333334v42.666666c0 29.824-23.509333 53.333333-53.333333 53.333334h-448a52.864 52.864 0 0 1-53.333333-53.333334v-42.666666c0-29.824 23.509333-53.333333 53.333333-53.333334z m21.333333 42.666667a32 32 0 0 0 0 64 32 32 0 0 0 0-64z" p-id="1551"></path></svg>